C:\Users\u0088756\Documents\FWO\Software\Misc\MuscleTendonEstimator\Examples\Example_trackUS\Data\trial_2_emg.mot
nRows=141
nColumns=4

name C:\Users\u0088756\Documents\FWO\Software\Misc\MuscleTendonEstimator\Examples\Example_trackUS\Data\trial_2_emg.mot
datacolumns 4
datarows 141
range 10.0000000000 10.1400000000
endheader
time	GastrocnemiusMedialis	Soleus	VastusLateralis
       10.0000000000	        0.7451131605	        0.6669380617	        0.9938886539	
       10.0010000000	        0.7424394544	        0.6699131708	        0.9947399382	
       10.0020000000	        0.7397538694	        0.6728775614	        0.9955275594	
       10.0030000000	        0.7370564483	        0.6758311860	        0.9962514673	
       10.0040000000	        0.7343472343	        0.6787739973	        0.9969116153	
       10.0050000000	        0.7316262708	        0.6817059482	        0.9975079614	
       10.0060000000	        0.7288936013	        0.6846269919	        0.9980404673	
       10.0070000000	        0.7261492695	        0.6875370815	        0.9985090989	
       10.0080000000	        0.7233933193	        0.6904361705	        0.9989138263	
       10.0090000000	        0.7206257948	        0.6933242126	        0.9992546236	
       10.0100000000	        0.7178467404	        0.6962011615	        0.9995314689	
       10.0110000000	        0.7150562004	        0.6990669712	        0.9997443446	
       10.0120000000	        0.7122542195	        0.7019215959	        0.9998932369	
       10.0130000000	        0.7094408426	        0.7047649898	        0.9999781364	
       10.0140000000	        0.7066161147	        0.7075971075	        0.9999990377	
       10.0150000000	        0.7037800809	        0.7104179036	        0.9999559393	
       10.0160000000	        0.7009327866	        0.7132273331	        0.9998488441	
       10.0170000000	        0.6980742774	        0.7160253510	        0.9996777590	
       10.0180000000	        0.6952045991	        0.7188119124	        0.9994426948	
       10.0190000000	        0.6923237974	        0.7215869729	        0.9991436666	
       10.0200000000	        0.6894319187	        0.7243504880	        0.9987806935	
       10.0210000000	        0.6865290090	        0.7271024136	        0.9983537988	
       10.0220000000	        0.6836151149	        0.7298427055	        0.9978630099	
       10.0230000000	        0.6806902829	        0.7325713199	        0.9973083580	
       10.0240000000	        0.6777545599	        0.7352882132	        0.9966898787	
       10.0250000000	        0.6748079929	        0.7379933419	        0.9960076117	
       10.0260000000	        0.6718506289	        0.7406866628	        0.9952616004	
       10.0270000000	        0.6688825154	        0.7433681326	        0.9944518928	
       10.0280000000	        0.6659036997	        0.7460377086	        0.9935785406	
       10.0290000000	        0.6629142296	        0.7486953480	        0.9926415997	
       10.0300000000	        0.6599141529	        0.7513410083	        0.9916411301	
       10.0310000000	        0.6569035176	        0.7539746472	        0.9905771958	
       10.0320000000	        0.6538823718	        0.7565962224	        0.9894498649	
       10.0330000000	        0.6508507640	        0.7592056922	        0.9882592095	
       10.0340000000	        0.6478087425	        0.7618030147	        0.9870053059	
       10.0350000000	        0.6447563561	        0.7643881483	        0.9856882343	
       10.0360000000	        0.6416936536	        0.7669610518	        0.9843080790	
       10.0370000000	        0.6386206840	        0.7695216838	        0.9828649283	
       10.0380000000	        0.6355374966	        0.7720700036	        0.9813588745	
       10.0390000000	        0.6324441405	        0.7746059703	        0.9797900142	
       10.0400000000	        0.6293406653	        0.7771295432	        0.9781584476	
       10.0410000000	        0.6262271207	        0.7796406822	        0.9764642792	
       10.0420000000	        0.6231035565	        0.7821393468	        0.9747076174	
       10.0430000000	        0.6199700226	        0.7846254973	        0.9728885747	
       10.0440000000	        0.6168265693	        0.7870990938	        0.9710072674	
       10.0450000000	        0.6136732467	        0.7895600967	        0.9690638160	
       10.0460000000	        0.6105101053	        0.7920084667	        0.9670583448	
       10.0470000000	        0.6073371958	        0.7944441645	        0.9649909823	
       10.0480000000	        0.6041545690	        0.7968671513	        0.9628618606	
       10.0490000000	        0.6009622756	        0.7992773882	        0.9606711161	
       10.0500000000	        0.5977603669	        0.8016748367	        0.9584188890	
       10.0510000000	        0.5945488940	        0.8040594584	        0.9561053234	
       10.0520000000	        0.5913279084	        0.8064312151	        0.9537305674	
       10.0530000000	        0.5880974615	        0.8087900690	        0.9512947730	
       10.0540000000	        0.5848576051	        0.8111359823	        0.9487980960	
       10.0550000000	        0.5816083910	        0.8134689174	        0.9462406963	
       10.0560000000	        0.5783498711	        0.8157888370	        0.9436227375	
       10.0570000000	        0.5750820977	        0.8180957040	        0.9409443871	
       10.0580000000	        0.5718051229	        0.8203894815	        0.9382058167	
       10.0590000000	        0.5685189993	        0.8226701328	        0.9354072013	
       10.0600000000	        0.5652237794	        0.8249376214	        0.9325487203	
       10.0610000000	        0.5619195159	        0.8271919110	        0.9296305564	
       10.0620000000	        0.5586062618	        0.8294329655	        0.9266528965	
       10.0630000000	        0.5552840699	        0.8316607492	        0.9236159312	
       10.0640000000	        0.5519529935	        0.8338752262	        0.9205198547	
       10.0650000000	        0.5486130859	        0.8360763613	        0.9173648653	
       10.0660000000	        0.5452644005	        0.8382641192	        0.9141511648	
       10.0670000000	        0.5419069908	        0.8404384649	        0.9108789590	
       10.0680000000	        0.5385409107	        0.8425993636	        0.9075484572	
       10.0690000000	        0.5351662139	        0.8447467807	        0.9041598727	
       10.0700000000	        0.5317829545	        0.8468806819	        0.9007134222	
       10.0710000000	        0.5283911865	        0.8490010330	        0.8972093263	
       10.0720000000	        0.5249909643	        0.8511078001	        0.8936478094	
       10.0730000000	        0.5215823423	        0.8532009495	        0.8900290993	
       10.0740000000	        0.5181653749	        0.8552804477	        0.8863534277	
       10.0750000000	        0.5147401169	        0.8573462615	        0.8826210297	
       10.0760000000	        0.5113066231	        0.8593983577	        0.8788321443	
       10.0770000000	        0.5078649484	        0.8614367035	        0.8749870140	
       10.0780000000	        0.5044151479	        0.8634612664	        0.8710858847	
       10.0790000000	        0.5009572767	        0.8654720140	        0.8671290063	
       10.0800000000	        0.4974913902	        0.8674689139	        0.8631166319	
       10.0810000000	        0.4940175439	        0.8694519345	        0.8590490184	
       10.0820000000	        0.4905357933	        0.8714210438	        0.8549264260	
       10.0830000000	        0.4870461941	        0.8733762103	        0.8507491186	
       10.0840000000	        0.4835488022	        0.8753174029	        0.8465173635	
       10.0850000000	        0.4800436736	        0.8772445904	        0.8422314316	
       10.0860000000	        0.4765308642	        0.8791577421	        0.8378915972	
       10.0870000000	        0.4730104304	        0.8810568272	        0.8334981381	
       10.0880000000	        0.4694824284	        0.8829418154	        0.8290513353	
       10.0890000000	        0.4659469147	        0.8848126766	        0.8245514735	
       10.0900000000	        0.4624039459	        0.8866693808	        0.8199988407	
       10.0910000000	        0.4588535786	        0.8885118983	        0.8153937283	
       10.0920000000	        0.4552958696	        0.8903401996	        0.8107364309	
       10.0930000000	        0.4517308760	        0.8921542556	        0.8060272467	
       10.0940000000	        0.4481586546	        0.8939540370	        0.8012664770	
       10.0950000000	        0.4445792627	        0.8957395152	        0.7964544266	
       10.0960000000	        0.4409927576	        0.8975106616	        0.7915914033	
       10.0970000000	        0.4373991966	        0.8992674479	        0.7866777185	
       10.0980000000	        0.4337986372	        0.9010098459	        0.7817136865	
       10.0990000000	        0.4301911371	        0.9027378277	        0.7766996251	
       10.1000000000	        0.4265767538	        0.9044513658	        0.7716358553	
       10.1010000000	        0.4229555454	        0.9061504327	        0.7665227010	
       10.1020000000	        0.4193275697	        0.9078350011	        0.7613604895	
       10.1030000000	        0.4156928848	        0.9095050443	        0.7561495511	
       10.1040000000	        0.4120515488	        0.9111605353	        0.7508902195	
       10.1050000000	        0.4084036199	        0.9128014479	        0.7455828312	
       10.1060000000	        0.4047491567	        0.9144277556	        0.7402277258	
       10.1070000000	        0.4010882174	        0.9160394325	        0.7348252461	
       10.1080000000	        0.3974208607	        0.9176364528	        0.7293757378	
       10.1090000000	        0.3937471453	        0.9192187909	        0.7238795497	
       10.1100000000	        0.3900671300	        0.9207864215	        0.7183370336	
       10.1110000000	        0.3863808736	        0.9223393196	        0.7127485442	
       10.1120000000	        0.3826884351	        0.9238774603	        0.7071144391	
       10.1130000000	        0.3789898736	        0.9254008189	        0.7014350789	
       10.1140000000	        0.3752852483	        0.9269093712	        0.6957108271	
       10.1150000000	        0.3715746185	        0.9284030929	        0.6899420500	
       10.1160000000	        0.3678580434	        0.9298819602	        0.6841291169	
       10.1170000000	        0.3641355826	        0.9313459494	        0.6782723998	
       10.1180000000	        0.3604072957	        0.9327950371	        0.6723722735	
       10.1190000000	        0.3566732422	        0.9342292001	        0.6664291155	
       10.1200000000	        0.3529334820	        0.9356484154	        0.6604433064	
       10.1210000000	        0.3491880748	        0.9370526604	        0.6544152290	
       10.1220000000	        0.3454370807	        0.9384419126	        0.6483452694	
       10.1230000000	        0.3416805596	        0.9398161497	        0.6422338158	
       10.1240000000	        0.3379185716	        0.9411753498	        0.6360812595	
       10.1250000000	        0.3341511768	        0.9425194911	        0.6298879943	
       10.1260000000	        0.3303784357	        0.9438485520	        0.6236544164	
       10.1270000000	        0.3266004086	        0.9451625115	        0.6173809248	
       10.1280000000	        0.3228171558	        0.9464613483	        0.6110679211	
       10.1290000000	        0.3190287380	        0.9477450418	        0.6047158092	
       10.1300000000	        0.3152352157	        0.9490135714	        0.5983249958	
       10.1310000000	        0.3114366496	        0.9502669168	        0.5918958897	
       10.1320000000	        0.3076331006	        0.9515050580	        0.5854289025	
       10.1330000000	        0.3038246295	        0.9527279751	        0.5789244481	
       10.1340000000	        0.3000112971	        0.9539356486	        0.5723829426	
       10.1350000000	        0.2961931646	        0.9551280591	        0.5658048049	
       10.1360000000	        0.2923702931	        0.9563051876	        0.5591904559	
       10.1370000000	        0.2885427435	        0.9574670152	        0.5525403188	
       10.1380000000	        0.2847105774	        0.9586135233	        0.5458548194	
       10.1390000000	        0.2808738558	        0.9597446937	        0.5391343854	
       10.1400000000	        0.2770326403	        0.9608605082	        0.5323794471	
